<svg width="22" height="22" viewBox="0 0 22 22" fill="none" xmlns="http://www.w3.org/2000/svg">
<path fill-rule="evenodd" clip-rule="evenodd" d="M11 21.75C5.063 21.75 0.25 16.937 0.25 11C0.25 5.063 5.063 0.25 11 0.25C16.937 0.25 21.75 5.063 21.75 11C21.75 16.937 16.937 21.75 11 21.75ZM15.48 8.37799C15.964 8.11299 16.143 7.50499 15.878 7.01999C15.613 6.53599 15.005 6.35799 14.52 6.62299C12.692 7.62299 11.18 9.55299 10.163 11.11C9.78699 11.685 9.466 12.23 9.209 12.691C8.97 12.459 8.733 12.257 8.52 12.089C8.243 11.87 7.993 11.696 7.811 11.577L7.496 11.382C7.016 11.108 6.405 11.275 6.132 11.755C5.858 12.234 6.025 12.845 6.504 13.119L6.715 13.25C6.858 13.344 7.058 13.482 7.28 13.658C7.738 14.02 8.23101 14.494 8.54201 15.014C8.73301 15.332 9.084 15.519 9.455 15.499C9.826 15.478 10.155 15.254 10.31 14.916L10.408 14.71C10.476 14.572 10.577 14.37 10.709 14.12C10.973 13.621 11.358 12.937 11.837 12.203C12.821 10.698 14.109 9.12699 15.48 8.37799Z" fill="#F3541C"/>
</svg>
